<?xml version="1.0" standalone="no"?>
<!DOCTYPE svg PUBLIC "-//W3C//DTD SVG 1.1//EN" "http://www.w3.org/Graphics/SVG/1.1/DTD/svg11.dtd" >
<svg xmlns="http://www.w3.org/2000/svg" xmlns:svg="http://www.w3.org/2000/svg" xmlns:xlink="http://www.w3.org/1999/xlink" viewBox="0 0 1024 1024"><path d="M337.98 984.45L314.32 955.28L348.71 922.01L373.52 871.78L397.41 839.39L414.09 805.22L433.76 761.43L464.29 757.87L484.56 786.35L519.89 805.23L474.71 782.73L486.58 824.74L469.54 837.4L443.79 895.92L406.56 919.65L382.32 936.87L386.62 928.38L345.25 953.37ZM875.38 966.79V938.46L777.55 914.3V901.13H869.83L875.24 920.56L898.46 896.87L882.63 905.48L900.1 903.66L888.08 894.51L884.1 891.92L879.01 891.65L897.31 903.19V28.67L945.16 43.82L991.05 58.37L977.85 65.39V895.67V897.98L946.57 913.86L962.14 927.77L954.37 953.89L925.7 971.03L928.02 963.5L932.78 953.48L920.23 982.54L875.97 960.2ZM161.87 982.08L145.92 946.57L152.21 954.16L152.16 896.03V861.7L131.26 825.6L143.42 810.61L120.1 787.54L141.91 786.77L108.14 751.14L110.57 759.63L132.08 763.21L101.84 729.18L107.68 736.57L78.11 705.36L39.72 669.06L45.7 666.68L66.73 689.58L124.37 709.06L142.34 716.54L129.63 735.03L271.49 457.74L317.74 335.71L339.96 317.86L215.51 662.72L188.06 748.25L180.84 776.15L184.22 785.21L171 760.01L187.87 805.1L179.91 837.2L216.16 846.5L184.79 916.2V950.22L173.7 982.71ZM639.99 906.54L621.65 916.09L599.32 901.48L608.78 880.25L595.76 890.24L591.02 876.5L594.32 843.62L549.9 815.91L539.12 758.02L528.95 748.93L523.09 746.78L543.18 743.39L578.39 765.84L573.8 760.4L575.28 805.19L626.77 831.02L613.51 816.54L663.48 849.41L653.56 846.55L676.52 893.45V913.54ZM732.35 820.33V129.14L782.28 143.29L797.63 148.89L785.07 151.72V776.45ZM375.69 780.21V36.11L411.02 81.58H591.16L607.24 47.68L674.14 83.2L627.46 109.82V677.22L587.94 733.07V679.21H405.31V756.94ZM431.54 665.58H590.66V482.26H442.86ZM410.66 439.13H562.51V271.72H431.6ZM163.66 455.15L149.62 431.91L126.71 440.77L156.12 405.63L146.26 409.87L133.86 403.36L102.54 382.47L100.58 363.9L88.37 364.1L51.39 339.48L48.03 329.07L54.06 315.64L103.31 336.6L105.86 340.22L105.67 332.06L155.57 336.28L176.04 354.87L185.67 386.62L194.4 381.11L209.12 399.91L217.04 394.49L194.69 414.48L185.35 458.1ZM417.24 250.66H592.63V113.85H436.75ZM235.17 211L201.85 184.69L195.84 166L220.61 163.37L211.94 149.02L187.26 126.83L167.94 143.44L181.86 134.2L144.06 114.59L149.37 82.24L107.31 74.03L113.64 76.78L136.15 61.93L142.6 87.56L158.19 91.36L213.42 92.2L213.33 109.15L217.06 96.36L257.93 120.14L270.66 121.27L278.51 156.23L278.29 151.33L260.8 167.48L251.03 209.51Z" fill="black"></path></svg>