<?xml version="1.0" standalone="no"?>
<!DOCTYPE svg PUBLIC "-//W3C//DTD SVG 1.1//EN" "http://www.w3.org/Graphics/SVG/1.1/DTD/svg11.dtd" >
<svg xmlns="http://www.w3.org/2000/svg" xmlns:svg="http://www.w3.org/2000/svg" xmlns:xlink="http://www.w3.org/1999/xlink" viewBox="0 0 1024 1024"><path d="M326.0 981.0 320.0 974.0 368.0 907.0 382.0 884.0 407.0 840.0 418.0 818.0 435.0 774.0 445.0 744.0 503.0 773.0 514.0 789.0 493.0 793.0 478.0 822.0 464.0 845.0 432.0 888.0 414.0 909.0 395.0 929.0 374.0 948.0 350.0 965.0ZM877.0 978.0V946.0L770.0 930.0V914.0H877.0L884.0 913.0L889.0 912.0L894.0 910.0L895.0 909.0L896.0 908.0L897.0 907.0L898.0 903.0L899.0 898.0V43.0L963.0 53.0L979.0 64.0L963.0 74.0V892.0V905.0L960.0 919.0L956.0 932.0L949.0 944.0L941.0 955.0L929.0 964.0L918.0 971.0L905.0 975.0L891.0 977.0ZM169.0 972.0 147.0 961.0 139.0 938.0 142.0 900.0V865.0L140.0 834.0L135.0 806.0L128.0 781.0L122.0 767.0L119.0 766.0L120.0 762.0L119.0 758.0L106.0 738.0L92.0 721.0L74.0 704.0L52.0 688.0L55.0 679.0L84.0 686.0L110.0 697.0L133.0 715.0L138.0 720.0L256.0 461.0L325.0 325.0L334.0 329.0L210.0 680.0L190.0 745.0L184.0 767.0L182.0 781.0L178.0 780.0L183.0 791.0L193.0 824.0L199.0 860.0L203.0 900.0V943.0L192.0 964.0ZM644.0 918.0 619.0 917.0 602.0 899.0 599.0 886.0 594.0 872.0 589.0 858.0 583.0 844.0 567.0 814.0 534.0 765.0 520.0 748.0 527.0 741.0 544.0 754.0 562.0 765.0 579.0 778.0 594.0 790.0 621.0 817.0 633.0 831.0 644.0 846.0 654.0 861.0 662.0 876.0V901.0ZM725.0 801.0V123.0L790.0 134.0L806.0 145.0L790.0 154.0V768.0ZM360.0 774.0V48.0L425.0 80.0H581.0L613.0 53.0L672.0 102.0L646.0 123.0V688.0L581.0 720.0V677.0H425.0V741.0ZM425.0 655.0H581.0V478.0H425.0ZM425.0 457.0H581.0V285.0H425.0ZM168.0 451.0 149.0 435.0 146.0 425.0 141.0 415.0 134.0 404.0 127.0 393.0 117.0 382.0 106.0 371.0 78.0 349.0 63.0 338.0 45.0 328.0 48.0 319.0 88.0 329.0 107.0 335.0 125.0 342.0 141.0 350.0 157.0 358.0 171.0 368.0 184.0 380.0 196.0 392.0 206.0 405.0 208.0 430.0 193.0 449.0ZM425.0 263.0H581.0V102.0H425.0ZM239.0 204.0 219.0 189.0 215.0 179.0 210.0 168.0 203.0 157.0 195.0 146.0 186.0 135.0 175.0 124.0 150.0 102.0 135.0 90.0 118.0 81.0 122.0 72.0 141.0 78.0 160.0 82.0 178.0 88.0 195.0 95.0 211.0 102.0 226.0 111.0 240.0 121.0 253.0 132.0 264.0 144.0 276.0 158.0 278.0 182.0 263.0 202.0Z" fill="black"></path></svg>