<?xml version="1.0" encoding="utf-8"?>
<svg version="1.1" id="Layer_1" xmlns="http://www.w3.org/2000/svg" xmlns:xlink="http://www.w3.org/1999/xlink" x="0px" y="0px" viewBox="0 0 115.28 122.88" style="enable-background:new 0 0 115.28 122.88" xml:space="preserve">
    <style type="text/css">.st0{fill-rule:evenodd;clip-rule:evenodd;fill:#000}</style>
    <g>
        <path class="st0" d="M25.38,57h64.88V37.34H69.59c-2.17,0-5.19-1.17-6.62-2.6c-1.43-1.43-2.3-4.01-2.3-6.17V7.64l0,0H8.15 c-0.18,0-0.32,0.09-0.41,0.18C7.59,7.92,7.55,8.05,7.55,8.24v106.45c0,0.14,0.09,0.32,0.18,0.41c0.09,0.14,0.28,0.18,0.41,0.18 c22.78,0,58.09,0,81.51,0c0.18,0,0.17-0.09,0.27-0.18c0.14-0.09,0.33-0.28,0.33-0.41v-11.16H25.38c-4.14,0-7.56-3.4-7.56-7.56 V64.55C17.82,60.4,21.22,57,25.38,57L25.38,57z M29.55,80.25c0-4,1.11-7.12,3.34-9.34c2.23-2.23,5.34-3.34,9.32-3.34 c4.08,0,7.23,1.1,9.44,3.28c2.21,2.19,3.31,5.26,3.31,9.21c0,2.87-0.48,5.21-1.44,7.04c-0.96,1.83-2.36,3.26-4.18,4.28 c-1.83,1.02-4.1,1.53-6.82,1.53c-2.76,0-5.05-0.44-6.87-1.32c-1.81-0.88-3.28-2.28-4.41-4.18C30.12,85.5,29.55,83.11,29.55,80.25 L29.55,80.25z M37.12,80.27c0,2.47,0.46,4.25,1.38,5.33c0.92,1.08,2.18,1.62,3.77,1.62c1.63,0,2.89-0.53,3.78-1.59 c0.9-1.06,1.34-2.96,1.34-5.7c0-2.31-0.47-3.99-1.4-5.05c-0.94-1.07-2.2-1.6-3.8-1.6c-1.53,0-2.76,0.54-3.69,1.62 C37.58,75.98,37.12,77.77,37.12,80.27L37.12,80.27z M56.5,67.97h23.05v6.06h-7.74v18.46h-7.57V74.03H56.5V67.97L56.5,67.97z M83.04,67.97h18.73v5.27H90.65v4.28h9.52v4.97h-9.52v10h-7.6V67.97L83.04,67.97z M97.79,57h9.93c4.16,0,7.56,3.41,7.56,7.56v31.42 c0,4.15-3.41,7.56-7.56,7.56h-9.93v13.55c0,1.61-0.65,3.04-1.7,4.1c-1.06,1.06-2.49,1.7-4.1,1.7c-29.44,0-56.59,0-86.18,0 c-1.61,0-3.04-0.64-4.1-1.7c-1.06-1.06-1.7-2.49-1.7-4.1V5.85c0-1.61,0.65-3.04,1.7-4.1c1.06-1.06,2.53-1.7,4.1-1.7h58.72 C64.66,0,64.8,0,64.94,0c0.64,0,1.29,0.28,1.75,0.69h0.09c0.09,0.05,0.14,0.09,0.23,0.18l29.99,30.36c0.51,0.51,0.88,1.2,0.88,1.98 c0,0.23-0.05,0.41-0.09,0.65V57L97.79,57z M67.52,27.97V8.94l21.43,21.7H70.19c-0.74,0-1.38-0.32-1.89-0.78 C67.84,29.4,67.52,28.71,67.52,27.97L67.52,27.97z" />
    </g>
</svg>